<?xml version="1.0" encoding="UTF-8"?>
<svg width="18px" height="16px" viewBox="0 0 18 16" version="1.1" xmlns="http://www.w3.org/2000/svg" xmlns:xlink="http://www.w3.org/1999/xlink">
    <title>Artboard 117</title>
    <g id="Page-1" stroke="none" stroke-width="1" fill="none" fill-rule="evenodd">
        <g id="Artboard-117" transform="translate(0.981951, 0.975266)" fill="#666666" fill-rule="nonzero">
            <g id="bbLayer_14">
                <path d="M8.43943403,8.54611947 L8.40243403,8.54611947 C7.53197806,8.57243018 6.69341056,8.21742686 6.10643403,7.57411947 C4.78643403,6.09111947 5.07643403,3.41811947 5.07843403,3.39111947 C5.02102214,2.49834925 5.34208148,1.62265174 5.96295593,0.978563467 C6.58383038,0.334475197 7.44715847,-0.0184976635 8.34143403,0.00611946508 C9.259366,-0.0504659571 10.1578113,0.287417224 10.8109777,0.934854155 C11.4641442,1.58229109 11.8099299,2.47772458 11.761434,3.39611947 C11.778434,3.54311947 12.041434,6.09611947 10.733434,7.57111947 C10.1493642,8.21541045 9.31270362,8.57199592 8.44343403,8.54711947 L8.43943403,8.54611947 Z M8.49643403,1.29611947 C7.63943403,1.29611947 6.44843403,1.57611947 6.36243403,3.47911947 C6.21181414,4.60831178 6.46123894,5.75460448 7.06743403,6.71911947 C7.41266913,7.09027676 7.90537367,7.2882384 8.41143403,7.25911947 L8.43543403,7.90311947 L8.42543403,7.25811947 C8.93199879,7.2885396 9.42554347,7.09038783 9.77043403,6.71811947 C10.3569217,5.81079918 10.6126251,4.72900436 10.494434,3.65511947 L10.480434,3.62711947 L10.477434,3.44711947 C10.391434,1.57911947 9.19943403,1.29611947 8.49643403,1.29611947 Z M0.707434034,14.8281195 C0.377434034,14.8281195 0.0974340341,15.0361195 0.0674340341,14.7011195 C-0.310565966,10.5291195 0.937434034,10.1091195 2.88743403,9.59511947 C4.1344937,9.43244 5.26599985,8.78144632 6.03343403,7.78511947 C6.14333403,7.65539371 6.30066626,7.57515814 6.47020511,7.56237694 C6.63974395,7.54959574 6.80732718,7.60533658 6.93543403,7.71711947 C7.21890945,7.94380879 7.27437185,8.35317415 7.06143403,8.64711947 C6.12253327,9.89890307 4.75170117,10.7568315 3.21543403,11.0541195 C1.76843403,11.4341195 1.04043403,11.1761195 1.34843403,14.5771195 C1.37843403,14.9311195 1.11843403,14.8271195 0.764434034,14.8271195 L0.707434034,14.8281195 Z M16.137434,14.8281195 L16.077434,14.8281195 C15.724434,14.8281195 15.463434,14.9401195 15.495434,14.5861195 C15.803434,11.1861195 15.075434,11.2231195 13.628434,10.8411195 C12.1003936,10.6045495 10.7220755,9.78880291 9.77943403,8.56311947 C9.67734605,8.43684086 9.63287013,8.27354922 9.65681867,8.11294191 C9.68076722,7.95233459 9.77094677,7.80912176 9.90543403,7.71811947 C10.1976866,7.51348503 10.600258,7.58266305 10.807434,7.87311947 C11.5701065,8.8974958 12.6963146,9.59068461 13.954434,9.81011947 C15.904434,10.3241195 17.152434,10.5221195 16.774434,14.6941195 C16.744434,15.0291195 16.464434,14.8281195 16.134434,14.8281195 L16.137434,14.8281195 Z M7.53543403,14.9811202 C7.38258523,14.9806988 7.23617104,14.919543 7.12843403,14.8111195 L5.62343403,13.2991195 C5.4783842,13.1535337 5.42202168,12.9416238 5.4755777,12.7432141 C5.52913373,12.5448044 5.68447185,12.3900381 5.88307771,12.3372141 C6.08168357,12.2843901 6.29338421,12.3415337 6.43843403,12.4871195 L7.54043403,13.5951195 L10.410434,10.7931195 C10.6386712,10.5776836 10.9974988,10.5850665 11.2166813,10.8097081 C11.4358638,11.0343497 11.4344186,11.3932503 11.213434,11.6161195 L7.93643403,14.8161195 C7.82947824,14.9220437 7.68496449,14.981359 7.53443403,14.9811202 L7.53543403,14.9811202 Z" id="Shape"></path>
            </g>
        </g>
    </g>
</svg>