<?xml version="1.0" encoding="UTF-8"?>
<svg width="41px" height="29px" viewBox="0 0 41 29" version="1.1" xmlns="http://www.w3.org/2000/svg" xmlns:xlink="http://www.w3.org/1999/xlink">
    <title>Artboard 121</title>
    <g id="Page-1" stroke="none" stroke-width="1" fill="none" fill-rule="evenodd">
        <g id="Artboard-121" transform="translate(0.981385, 0.981385)" fill="#DA251D" fill-rule="nonzero">
            <g id="acLayer_6" transform="translate(-0.000000, 0.000000)">
                <path d="M12.856,0 L26.53,0 L26.53,3.335 L12.856,3.335 L12.856,0 Z M37.718,8.524 L34.864,8.524 L33.14,3.112 C32.8115978,1.80027338 31.6487699,0.868538577 30.297,0.834 L28.4,0.834 L28.4,2.5 L30.297,2.5 C30.8672748,2.53605417 31.3538627,2.92548449 31.514,3.474 L33.154,8.524 L6.23,8.524 L7.876,3.474 C8.03536229,2.92496609 8.52238925,2.53518444 9.093,2.5 L10.986,2.5 L10.986,0.834 L9.093,0.834 C7.73985999,0.865953452 6.57507936,1.79859678 6.248,3.112 L4.52,8.524 L1.67,8.524 C0.747684468,8.524 0,9.27168447 0,10.194 C0,11.1163155 0.747684468,11.864 1.67,11.864 L2.148,11.864 C2.15385009,11.911146 2.16253246,11.9578972 2.174,12.004 L5.137,25.71 C5.45386458,27.0275825 6.61724595,27.9673156 7.972,28 L31.24,28 C32.5923717,27.9652092 33.7574717,27.0372932 34.094,25.727 L37.21,12.01 L37.24,11.864 L37.72,11.864 C38.6423155,11.864 39.39,11.1163155 39.39,10.194 C39.39,9.27168447 38.6423155,8.524 37.72,8.524 L37.718,8.524 Z M13.068,24.164 C13.068,24.8554605 12.5074605,25.416 11.816,25.416 C11.1245395,25.416 10.564,24.8554605 10.564,24.164 L10.564,12.484 C10.564,11.7925395 11.1245395,11.232 11.816,11.232 C12.5074605,11.232 13.068,11.7925395 13.068,12.484 L13.068,24.164 Z M20.948,24.164 C20.948,24.8557366 20.3872366,25.4165 19.6955,25.4165 C19.0037634,25.4165 18.443,24.8557366 18.443,24.164 L18.443,12.484 C18.443,11.7925395 19.0035395,11.232 19.695,11.232 C20.3864605,11.232 20.947,11.7925395 20.947,12.484 L20.948,24.164 Z M28.821,24.164 C28.8393369,24.6221463 28.6053706,25.053561 28.2113787,25.2880919 C27.8173869,25.5226227 27.3266131,25.5226227 26.9326213,25.2880919 C26.5386294,25.053561 26.3046631,24.6221463 26.323,24.164 L26.323,12.484 C26.323,11.7936441 26.8826441,11.234 27.573,11.234 C28.2633559,11.234 28.823,11.7936441 28.823,12.484 L28.821,24.164 Z" id="Shape"></path>
            </g>
        </g>
    </g>
</svg>