<?xml version="1.0" encoding="UTF-8"?>
<svg width="28px" height="16px" viewBox="0 0 28 16" version="1.1" xmlns="http://www.w3.org/2000/svg" xmlns:xlink="http://www.w3.org/1999/xlink">
    <title>Artboard 128</title>
    <g id="Page-1" stroke="none" stroke-width="1" fill="none" fill-rule="evenodd">
        <g id="Artboard-128" transform="translate(0.981385, 0.981385)" fill="#888888" fill-rule="nonzero">
            <g id="ay_Group_">
                <path d="M7.028,13.156 C7.028,14.1738608 6.20286079,14.999 5.185,14.999 C4.16713921,14.999 3.342,14.1738608 3.342,13.156 C3.342,12.1381392 4.16713921,11.313 5.185,11.313 C6.20263218,11.3135517 7.02744829,12.1383678 7.028,13.156" id="ay_Path_"></path>
                <path d="M22.738,13.156 C22.738,14.1736003 21.9132662,14.9986311 20.8956659,14.9989989 C19.8780657,14.9993665 19.0527365,14.1749319 19.052,13.1573319 C19.0512645,12.1397318 19.8754003,11.3141043 20.893,11.313 C21.9109568,11.3135501 22.7363458,12.1380444 22.738,13.156" id="ay_Path_2"></path>
                <path d="M25.63,6.364 L23.148,3.92 C22.797856,3.46868428 22.2621229,3.2002662 21.691,3.19 L18.104,3.19 C17.6646098,3.19055096 17.308551,3.54660976 17.308,3.986 L17.308,11.961 C17.3085365,12.3990007 17.6620113,12.7547071 18.1,12.758 C18.2943134,11.3633977 19.4869257,10.3254342 20.895,10.3254342 C22.3030743,10.3254342 23.4956866,11.3633977 23.69,12.758 L25.444,12.758 C25.8831625,12.7569007 26.2389007,12.4011625 26.24,11.962 L26.24,7.974 C26.1782948,7.39385537 25.9682142,6.83938033 25.63,6.364 M19.05,7.974 L19.05,4.784 L21.648,4.784 C21.778,4.784 21.955,4.974 21.955,4.974 L24.099,7.294 C24.2595776,7.48993365 24.3664108,7.72427749 24.409,7.974 L19.05,7.974 Z" id="ay_Compound_Path_"></path>
                <path d="M15.712,0 L0.797,0 C0.357447011,0.000549439073 0.00110129403,0.356448047 0,0.796 L0,11.96 C0.00164501198,12.3994878 0.357512244,12.755355 0.797,12.757 L2.387,12.757 C2.57807452,11.3591441 3.77214547,10.3171884 5.183,10.3171884 C6.59385453,10.3171884 7.78792548,11.3591441 7.979,12.757 L15.711,12.757 C16.1500996,12.7553588 16.5058076,12.4000972 16.508,11.961 L16.508,0.797 C16.5063518,0.357123492 16.1498782,0.0010966112 15.71,0" id="ay_Path_3"></path>
            </g>
        </g>
    </g>
</svg>