<?xml version="1.0" encoding="UTF-8"?>
<svg width="13px" height="16px" viewBox="0 0 13 16" version="1.1" xmlns="http://www.w3.org/2000/svg" xmlns:xlink="http://www.w3.org/1999/xlink">
    <title>Artboard 113</title>
    <g id="Page-1" stroke="none" stroke-width="1" fill="none" fill-rule="evenodd">
        <g id="Artboard-113" transform="translate(0.981385, 0.981385)" fill="#84C225" fill-rule="nonzero">
            <path d="M5.67,15 C5.44548929,14.999786 5.23237504,14.9010882 5.087,14.7299999 C4.564,14.1069999 0,8.56999992 0,5.66999992 C0,2.53854542 2.5385455,0 5.67,0 C8.8014545,0 11.34,2.53854542 11.34,5.66999992 C11.34,8.57399992 6.78,14.1069999 6.258,14.7279999 C6.11070378,14.8996266 5.896165,14.998869 5.67,15 Z M5.67,1.11199992 C3.15382842,1.11475555 1.11475564,3.15382833 1.112,5.66999992 C1.112,7.60799992 3.955,11.5899999 5.672,13.6939999 C7.378,11.6019999 10.227,7.61399992 10.227,5.66999992 C10.2247955,3.1539901 8.18600927,1.11475652 5.67,1.11199992 Z M5.67,8.60199992 C4.48393503,8.60280896 3.41420778,7.88896328 2.95975966,6.79341425 C2.50531153,5.69786522 2.7556671,4.43643185 3.59405569,3.59747098 C4.43244428,2.75851012 5.69370652,2.50729385 6.78956539,2.96099431 C7.88542426,3.41469477 8.6,4.48393467 8.6,5.66999992 C8.59835172,7.28815936 7.28815569,8.60014406 5.67,8.60399992 L5.67,8.60199992 Z M5.67,3.84999992 C4.66484176,3.84999992 3.85,4.66484167 3.85,5.66999992 C3.85,6.67515816 4.66484176,7.48999992 5.67,7.48999992 C6.67515824,7.48999992 7.49,6.67515816 7.49,5.66999992 C7.49,4.66484167 6.67515824,3.84999992 5.67,3.84999992 L5.67,3.84999992 Z" id="aoLayer_15"></path>
        </g>
    </g>
</svg>