<?xml version="1.0" encoding="UTF-8"?>
<svg width="17px" height="16px" viewBox="0 0 17 16" version="1.1" xmlns="http://www.w3.org/2000/svg" xmlns:xlink="http://www.w3.org/1999/xlink">
    <title>Artboard 112</title>
    <g id="Page-1" stroke="none" stroke-width="1" fill="none" fill-rule="evenodd">
        <g id="Artboard-112" transform="translate(0.981705, 0.975732)" fill="#FFFFFF" fill-rule="nonzero">
            <g id="bcLayer_14">
                <path d="M7.8676804,7.9656532 L7.8316804,7.9656532 C7.02051491,7.99043605 6.23894099,7.65991063 5.6916804,7.0606532 C4.4616804,5.6776532 4.7316804,3.1856532 4.7336804,3.1606532 C4.68020136,2.32825533 4.97969407,1.51181247 5.5587492,0.91144476 C6.13780433,0.311077053 6.94289382,-0.0177173083 7.7766804,0.00565319811 C8.63218263,-0.0468475072 9.46943198,0.268225182 10.0780742,0.871710983 C10.6867163,1.47519678 11.0089008,2.30973526 10.9636804,3.1656532 C10.9796804,3.3026532 11.2256804,5.6836532 10.0056804,7.0556532 C9.46142972,7.65615179 8.68179165,7.98861226 7.8716804,7.9656532 L7.8676804,7.9656532 Z M7.9196804,1.2056532 C7.1216804,1.2056532 6.0116804,1.4706532 5.9296804,3.2426532 C5.79015137,4.29550987 6.02366015,5.36398942 6.5896804,6.2626532 C6.91095525,6.60765817 7.3689858,6.79196966 7.8396804,6.7656532 L7.8626804,7.3656532 L7.8526804,6.7656532 C8.32540679,6.79423039 8.78602302,6.60924985 9.1076804,6.2616532 C9.65428351,5.41556853 9.89233608,4.40684726 9.7816804,3.4056532 L9.7686804,3.3816532 L9.7646804,3.2146532 C9.6856804,1.4696532 8.5756804,1.2056532 7.9196804,1.2056532 Z M0.659680395,14.6587022 C0.35114279,14.6625915 0.0913224072,14.4288837 0.062680395,14.1216532 C-0.289319605,10.2316532 0.875680395,9.6316532 2.6926804,9.1536532 C3.86375757,8.95602133 4.91374804,8.31499714 5.6246804,7.3636532 C5.82460748,7.09910881 6.201136,7.04672613 6.46568039,7.24665321 C6.73022478,7.44658029 6.78260746,7.8231088 6.5826804,8.0876532 C5.70712607,9.2515417 4.42871141,10.046762 2.9976804,10.3176532 C1.6476804,10.6736532 0.970680395,10.8446532 1.2576804,14.0146532 C1.27613743,14.1731627 1.22812387,14.3322381 1.12505257,14.4540668 C1.02198128,14.5758956 0.873057433,14.6495974 0.713680395,14.6576532 L0.659680395,14.6587022 Z M15.0416804,14.6586532 L14.9876804,14.6586532 C14.8281077,14.6506199 14.6790095,14.5767795 14.5759062,14.4547233 C14.4728029,14.3326672 14.4249256,14.1733234 14.4436804,14.0146532 C14.7306804,10.8446532 14.0536804,10.6686532 12.7036804,10.3146532 C11.2721788,10.0442686 9.99327962,9.24896872 9.1176804,8.0846532 C8.98201683,7.91396005 8.94963044,7.68310579 9.03308858,7.48167219 C9.11654673,7.2802386 9.30271169,7.13993474 9.51934314,7.11520477 C9.73597458,7.09047481 9.94897106,7.18521166 10.0756804,7.3626532 C10.7871231,8.31493817 11.837708,8.95696225 13.0096804,9.1556532 C14.8266804,9.6356532 15.9896804,10.2316532 15.6396804,14.1206532 C15.6110094,14.4282718 15.3506,14.6621177 15.0416804,14.6576532 L15.0416804,14.6586532 Z M7.0246804,13.9646533 C6.88176959,13.9640095 6.74501027,13.9064266 6.6446804,13.8046532 L5.2426804,12.3946532 C5.10617077,12.2591837 5.05270243,12.060962 5.10256837,11.8752196 C5.1524343,11.6894772 5.2979904,11.5446871 5.48399337,11.4958021 C5.66999634,11.446917 5.86793318,11.5014306 6.0026804,11.6386532 L7.0296804,12.6706532 L9.7036804,10.0586532 C9.84087038,9.92467859 10.0391138,9.87407094 10.2237342,9.92589365 C10.4083546,9.97771637 10.5513038,10.1240963 10.5987342,10.3098937 C10.6461646,10.495691 10.5908704,10.6926786 10.4536804,10.8266532 L7.3996804,13.8106532 C7.29984307,13.9093747 7.16508487,13.9647154 7.0246804,13.9646533 L7.0246804,13.9646533 Z" id="Shape"></path>
            </g>
        </g>
    </g>
</svg>