<?xml version="1.0" encoding="UTF-8"?>
<svg width="30px" height="16px" viewBox="0 0 30 16" version="1.1" xmlns="http://www.w3.org/2000/svg" xmlns:xlink="http://www.w3.org/1999/xlink">
    <title>Artboard 134</title>
    <g id="Page-1" stroke="none" stroke-width="1" fill="none" fill-rule="evenodd">
        <g id="Artboard-134" transform="translate(0.981385, 0.978054)" fill-rule="nonzero">
            <g id="ajLayer_3">
                <polygon id="aj_Path_" fill="#1F1A17" points="7.62 4.61733093 0 4.90733093 6.195 6.99333093 6.402 5.67733093 7.622 4.61733093"></polygon>
                <path d="M5.63,7.64333093 L0.56,8.47333093 L4.107,10.5973309 C4.11583707,10.0157577 4.24523015,9.44234209 4.487,8.91333093 C4.77777169,8.41612915 5.16747536,7.98388142 5.632,7.64333093 L5.63,7.64333093 Z" id="aj_Path_2" fill="#1F1A17"></path>
                <path d="M25.265,7.05333093 C24.6673923,6.90635277 24.0439823,6.89882531 23.443,7.03133093 L21.513,0.848330928 C21.5073435,0.835477724 21.5006549,0.823103915 21.493,0.811330928 C21.4818725,0.787436932 21.4684778,0.764665897 21.453,0.743330928 C21.4397523,0.723955602 21.423942,0.706463354 21.406,0.691330928 C21.3899139,0.67474619 21.3717657,0.66029478 21.352,0.648330928 C21.3299267,0.634568488 21.3064636,0.623172138 21.282,0.614330928 C21.2690952,0.607704608 21.2557268,0.602023035 21.242,0.597330928 L18.893,0.0133309284 C18.7604704,-0.0228166015 18.6187625,0.015780623 18.5228698,0.114143899 C18.4269771,0.212507175 18.3919964,0.355150907 18.4315028,0.486718313 C18.4710092,0.618285719 18.5787831,0.71806379 18.713,0.747330928 L20.857,1.27733093 L21.375,3.00733093 L21.778,4.28533093 L22.724,7.25933093 C20.9061216,8.03481594 19.918862,10.0141515 20.3929386,11.9328255 C20.8670152,13.8514996 22.6625143,15.1432557 24.6323691,14.9828466 C26.6022238,14.8224375 28.1650728,13.2572046 28.3224792,11.2871076 C28.4798857,9.31701068 27.1853944,7.52348256 25.266,7.05233093 L25.265,7.05333093 Z M26.285,11.4603309 C26.0860105,12.2644175 25.4222425,12.8694587 24.6032126,12.9933222 C23.7841828,13.1171858 22.9711868,12.7354787 22.5433267,12.0261919 C22.1154666,11.3169051 22.157003,10.419722 22.6485674,9.75300131 C23.1401318,9.08628063 23.984918,8.781323 24.789,8.98033093 C25.8865281,9.25251803 26.5557706,10.3626997 26.284,11.4603309 L26.285,11.4603309 Z M21.677,3.96833093 C21.0658595,3.83039781 20.4431364,3.75004645 19.817,3.72833093 C19.5331346,3.72187408 19.2491568,3.73456956 18.967,3.76633093 C17.84,3.90133093 16.999,4.55133093 15.507,5.78133093 C14.5944485,6.6132892 13.2262017,6.69896058 12.217,5.98733093 L12.205,5.97933093 C11.3943312,5.44941144 10.4572967,5.14465951 9.49,5.09633093 C9.32257109,5.09722503 9.1554416,5.11059539 8.99,5.13633093 C8.92096518,5.04296945 8.81210755,4.98742984 8.696,4.98633093 L7.882,4.98633093 L7.575,5.05933093 C7.47339449,5.12693771 7.41166265,5.24029981 7.41,5.36233093 L7.41,5.91733093 C7.21638352,6.09778349 7.03748191,6.29340487 6.875,6.50233093 C6.79209846,6.57333986 6.74456773,6.67717624 6.745,6.78633093 C6.74176083,6.88886243 6.7816995,6.98804709 6.8550869,7.05972339 C6.9284743,7.13139968 7.02857343,7.16898769 7.131,7.16333093 C7.15171504,7.16429915 7.17247521,7.16329462 7.193,7.16033093 C7.195,7.15833093 7.288,7.14533093 7.446,7.13233093 C5.48250257,7.77207394 4.3189368,9.79106524 4.74980385,11.8107055 C5.1806709,13.8303458 7.06688813,15.1987009 9.12051647,14.9814363 C11.1741448,14.7641717 12.7322789,13.0314197 12.731,10.9663309 C12.731,10.9363309 12.727,10.9093309 12.725,10.8813309 L13.179,11.7013309 C13.623,12.4663309 14.061,13.7313309 14.859,13.7313309 L17.156,13.7313309 C17.956,13.7313309 18.394,12.4663309 18.838,11.7013309 L22.162,5.15833093 L21.677,3.96833093 Z M8.695,13.0183309 C7.56281626,13.0183309 6.645,12.1005147 6.645,10.9683309 C6.645,9.83614719 7.56281626,8.91833093 8.695,8.91833093 C9.82718374,8.91833093 10.745,9.83614719 10.745,10.9683309 C10.745,12.1005147 9.82718374,13.0183309 8.695,13.0183309 Z" id="Shape" fill="#888888"></path>
            </g>
        </g>
    </g>
</svg>