<?xml version="1.0" encoding="UTF-8"?>
<svg width="19px" height="17px" viewBox="0 0 19 17" version="1.1" xmlns="http://www.w3.org/2000/svg" xmlns:xlink="http://www.w3.org/1999/xlink">
    <title>Artboard 116</title>
    <g id="Page-1" stroke="none" stroke-width="1" fill="none" fill-rule="evenodd">
        <g id="Artboard-116" transform="translate(0.981053, 0.975244)" fill="#FFFFFF" fill-rule="nonzero">
            <g id="bfLayer_14">
                <path d="M8.59233204,8.70114114 L8.55433204,8.70114114 C7.66824804,8.72766666 6.81472653,8.36609785 6.21733204,7.71114114 C4.87333204,6.20114114 5.16733204,3.47914114 5.17033204,3.45114114 C5.1123626,2.5422893 5.4395658,1.65100309 6.07181627,0.995540299 C6.70406674,0.340077504 7.58298141,-0.0190353466 8.49333204,0.00614114123 C9.42770996,-0.0510469313 10.3420825,0.293245964 11.0066921,0.952508143 C11.6713017,1.61177032 12.02297,2.52333173 11.973332,3.45814114 C11.993332,3.60814114 12.261332,6.20814114 10.928332,7.70814114 C10.3338903,8.36344213 9.48272611,8.72619151 8.59833204,8.70114114 L8.59233204,8.70114114 Z M8.65033204,1.31814114 C7.77833204,1.31814114 6.56533204,1.60614114 6.47733204,3.54214114 C6.32469481,4.69182905 6.57943315,5.85867215 7.19733204,6.84014114 C7.54825897,7.21743103 8.04887633,7.41899731 8.56333204,7.39014114 L8.58733204,8.04514114 L8.57733204,7.38814114 C9.09334157,7.41935205 9.59614797,7.21749546 9.94733204,6.83814114 C10.5440257,5.91441305 10.8039672,4.81319381 10.683332,3.72014114 L10.669332,3.69214114 L10.665332,3.51014114 C10.580332,1.60614114 9.36633204,1.31814114 8.65033204,1.31814114 Z M0.720332043,15.2161411 C0.385332043,15.2161411 0.100332043,15.3661411 0.0683320435,15.0261411 C-0.315667957,10.7791411 0.956332043,10.3211411 2.94033204,9.79814114 C4.21103839,9.62624562 5.36231956,8.95912796 6.14333204,7.94214114 C6.25418481,7.80915795 6.41370967,7.72614896 6.58623058,7.71167825 C6.75875149,7.69720754 6.92987532,7.75248238 7.06133204,7.86514114 C7.34961067,8.0938476 7.40689009,8.50890309 7.19133204,8.80714114 C6.23523682,10.0810686 4.83934314,10.9536804 3.27533204,11.2551411 C1.80233204,11.6451411 1.06133204,11.4401411 1.37533204,14.9021411 C1.40733204,15.2621411 1.14133204,15.2161411 0.781332043,15.2161411 L0.720332043,15.2161411 Z M16.428332,15.2161411 L16.368332,15.2161411 C16.008332,15.2161411 15.743332,15.2701411 15.775332,14.9101411 C16.089332,11.4481411 15.348332,11.4551411 13.875332,11.0661411 C12.3191901,10.8177983 10.9173967,9.98251981 9.95833204,8.73214114 C9.85431912,8.60241033 9.80901781,8.43522994 9.83330329,8.27073378 C9.85758876,8.10623762 9.94926794,7.95928041 10.086332,7.86514114 C10.382078,7.65479627 10.7921675,7.72269781 11.004332,8.01714114 C11.781188,9.05976867 12.9282561,9.76483085 14.209332,9.98714114 C16.192332,10.5111411 17.463332,10.7721411 17.079332,15.0191411 C17.049332,15.3591411 16.763332,15.2161411 16.427332,15.2161411 L16.428332,15.2161411 Z" id="Shape"></path>
            </g>
        </g>
    </g>
</svg>