<?xml version="1.0" encoding="UTF-8"?>
<svg width="30px" height="39px" viewBox="0 0 30 39" version="1.1" xmlns="http://www.w3.org/2000/svg" xmlns:xlink="http://www.w3.org/1999/xlink">
    <title>Artboard 108</title>
    <g id="Page-1" stroke="none" stroke-width="1" fill="none" fill-rule="evenodd">
        <g id="Artboard-108" transform="translate(0.981385, 0.979886)" fill="#84C225" fill-rule="nonzero">
            <path d="M14.365,38.0015007 C13.7968458,38.0020481 13.2570073,37.7535103 12.888,37.3214998 C11.56,35.7374998 0,21.7114998 0,14.3634998 C0,6.43075787 6.43075808,2.84217094e-14 14.3635,2.84217094e-14 C22.2962419,2.84217094e-14 28.727,6.43075787 28.727,14.3634998 C28.727,21.7194998 17.172,35.7374998 15.853,37.3104998 C15.4802256,37.7449987 14.9374818,37.9966743 14.365,38.0004998 L14.365,38.0015007 Z M14.365,2.81849979 C7.99112711,2.82511091 2.82526717,7.98962883 2.817,14.3634998 C2.817,19.2734998 10.019,29.3604998 14.369,34.6894998 C18.689,29.3914998 25.909,19.2864998 25.909,14.3634998 C25.9029359,7.98988586 20.7376139,2.82456386 14.364,2.81849979 L14.365,2.81849979 Z M14.365,21.7945004 C11.3605638,21.7957131 8.65125153,19.9869249 7.50047593,17.2116134 C6.34970033,14.4363018 6.98410129,11.2410518 9.10784351,9.1158794 C11.2315857,6.99070705 14.426408,6.35415528 17.2024936,7.50306235 C19.9785792,8.65196943 21.7891908,11.3600634 21.79,14.3644998 C21.7844986,18.4637434 18.464239,21.7862389 14.365,21.7945004 Z M14.365,9.75449935 C12.5002473,9.75369078 10.8186603,10.8763682 10.1044896,12.5989429 C9.39031903,14.3215177 9.78423724,16.3046888 11.1025306,17.6235543 C12.4208239,18.9424198 14.4038239,19.3371985 16.1267084,18.6237754 C17.8495929,17.9103524 18.973,16.2292527 18.973,14.3644998 C18.9713467,11.819933 16.9095659,9.75725729 14.365,9.75449935 L14.365,9.75449935 Z" id="amLayer_15"></path>
        </g>
    </g>
</svg>