<?xml version="1.0" encoding="UTF-8"?>
<svg width="19px" height="17px" viewBox="0 0 19 17" version="1.1" xmlns="http://www.w3.org/2000/svg" xmlns:xlink="http://www.w3.org/1999/xlink">
    <title>Artboard 118</title>
    <g id="Page-1" stroke="none" stroke-width="1" fill="none" fill-rule="evenodd">
        <g id="Artboard-118" transform="translate(0.981819, 0.975190)" fill="#666666" fill-rule="nonzero">
            <g id="baLayer_14" transform="translate(0.000000, -0.000000)">
                <path d="M8.69756638,8.80819528 L8.65756638,8.80819528 C7.76120408,8.83463124 6.89790867,8.46871669 6.29356638,7.80619528 C4.93356638,6.27619528 5.23156638,3.52219528 5.23356638,3.49619528 C5.17411803,2.57535694 5.50529973,1.67207084 6.1458804,1.00789184 C6.78646107,0.343712831 7.67718058,-0.0199158823 8.59956638,0.00619527773 C9.54543485,-0.0515994461 10.4710032,0.297063995 11.1436539,0.964558112 C11.8163047,1.63205223 12.1720805,2.55491006 12.1215664,3.50119528 C12.1395664,3.65119528 12.4115664,6.28319528 11.0615664,7.80119528 C10.4598545,8.46560865 9.59759113,8.83353204 8.70156638,8.80819528 L8.69756638,8.80819528 Z M8.75556638,1.33419528 C7.87356638,1.33419528 6.64556638,1.62619528 6.55556638,3.58419528 C6.40044896,4.74839439 6.65802939,5.93015078 7.28356638,6.92419528 C7.63942689,7.30649137 8.14714525,7.51031188 8.66856638,7.48019528 L8.69156638,8.14419528 L8.68156638,7.48019528 C9.20399312,7.51166361 9.71300804,7.30725026 10.0685664,6.92319528 C10.6726354,5.98788031 10.9357536,4.87289476 10.8135664,3.76619528 L10.7985664,3.73919528 L10.7955664,3.55419528 C10.7075664,1.62419528 9.47856638,1.33419528 8.75556638,1.33419528 Z M0.729566379,15.0261953 C0.389566379,15.0261953 0.0995663788,15.3681953 0.0695663788,15.0231953 C-0.320433621,10.7231953 0.967566379,10.3531953 2.97556638,9.82319528 C4.25720685,9.67047435 5.42454709,9.01155003 6.21756638,7.99319528 C6.33290088,7.86143622 6.49625601,7.78143157 6.67105769,7.77109384 C6.84585937,7.7607561 7.01750575,7.82094883 7.14756638,7.93819528 C7.44059332,8.17498738 7.49765279,8.59942206 7.27756638,8.90519528 C6.30973904,10.1949955 4.89747223,11.0794886 3.31456638,11.3871953 C1.82256638,11.7811953 1.07256638,11.3901953 1.39056638,14.8941953 C1.42356638,15.2571953 1.15456638,15.0241953 0.790566379,15.0241953 L0.729566379,15.0261953 Z M16.6295664,15.0261953 L16.5695664,15.0261953 C16.2045664,15.0261953 15.9365664,15.2691953 15.9695664,14.9041953 C16.2855664,11.4001953 15.5365664,11.5011953 14.0445664,11.1081953 C12.4733731,10.878771 11.0523981,10.048913 10.0805664,8.79319528 C9.97541503,8.66590872 9.9294937,8.49984166 9.9543117,8.33661562 C9.97912969,8.17338957 10.0723346,8.02847621 10.2105664,7.93819528 C10.5137314,7.72858681 10.9292691,7.80320487 11.1405664,8.10519528 C11.9265889,9.16191645 13.087385,9.87757375 14.3845664,10.1051953 C16.3925664,10.6351953 17.6795664,10.7131953 17.2905664,15.0121953 C17.2605664,15.3571953 16.9705664,15.0261953 16.6305664,15.0261953 L16.6295664,15.0261953 Z" id="Shape"></path>
            </g>
        </g>
    </g>
</svg>