<?xml version="1.0" encoding="UTF-8"?>
<svg width="16px" height="16px" viewBox="0 0 16 16" version="1.1" xmlns="http://www.w3.org/2000/svg" xmlns:xlink="http://www.w3.org/1999/xlink">
    <title>Artboard 122</title>
    <g id="Page-1" stroke="none" stroke-width="1" fill="none" fill-rule="evenodd">
        <g id="Artboard-122" transform="translate(0.993412, 0.994397)" fill="#84C225" fill-rule="nonzero">
            <path d="M9.19797336,7.48698864 L14.6339734,2.05298864 C15.0945413,1.57874094 15.0892302,0.822632223 14.6220457,0.354901244 C14.1548611,-0.112829735 13.3987591,-0.119024611 12.9239734,0.34098864 L7.48797336,5.77698864 L2.05297336,0.34098864 C1.57818762,-0.119024611 0.822085627,-0.112829735 0.354901063,0.354901244 C-0.112283501,0.822632223 -0.11759456,1.57874094 0.342973357,2.05298864 L5.77597336,7.48698864 L0.341973357,12.9209886 C-0.11859456,13.3952363 -0.113283501,14.1513451 0.353901063,14.619076 C0.821085627,15.086807 1.57718762,15.0930019 2.05197336,14.6329886 L7.48797336,9.19698864 L12.9229734,14.6319886 C13.3977591,15.0920019 14.1538611,15.085807 14.6210457,14.618076 C15.0882302,14.1503451 15.0935413,13.3942363 14.6329734,12.9199886 L9.19797336,7.48698864 Z" id="aiLayer_24"></path>
        </g>
    </g>
</svg>