<?xml version="1.0" encoding="UTF-8"?>
<svg width="19px" height="16px" viewBox="0 0 19 16" version="1.1" xmlns="http://www.w3.org/2000/svg" xmlns:xlink="http://www.w3.org/1999/xlink">
    <title>Artboard 127</title>
    <g id="Page-1" stroke="none" stroke-width="1" fill="none" fill-rule="evenodd">
        <g id="Artboard-127" transform="translate(0.981385, 0.981718)" fill="#84C341" fill-rule="nonzero">
            <path d="M0,7.13466738 C0.034,6.86966738 0.056,6.60466738 0.104,6.34166738 C0.485112542,3.60857373 2.38215364,1.3275523 5,0.454667375 C8.1883499,-0.718515422 11.7656939,0.43650517 13.666,3.25266738 C14.1207328,3.89678128 14.4622952,4.6137241 14.676,5.37266738 C14.69,5.42466738 14.672,5.52766738 14.636,5.54866738 C14.1837908,5.80988455 13.8747517,6.26240605 13.796,6.77866738 C13.786,6.83366738 13.768,6.88566738 13.751,6.94866738 L13.504,6.94866738 C13.46,6.70166738 13.428,6.45266738 13.371,6.21066738 C13.3079081,5.9566974 13.2331623,5.70576532 13.147,5.45866738 C13.1214618,5.4042126 13.0711682,5.3654679 13.012,5.35466738 C12.202,5.34866738 11.392,5.35166738 10.584,5.35266738 C10.5711981,5.35504453 10.5587602,5.35907844 10.547,5.36466738 L10.71,6.94666738 L9.656,6.94666738 C9.621,6.61466738 9.59,6.28666738 9.553,5.96166738 C9.535,5.79566738 9.503,5.63166738 9.483,5.46566738 C9.473,5.37566738 9.427,5.34766738 9.338,5.34766738 C8.116,5.34766738 6.893,5.34766738 5.67,5.35266738 C5.623,5.35266738 5.54,5.40866738 5.533,5.44766738 C5.463,5.94366738 5.403,6.44066738 5.338,6.96566738 L8.02,6.96566738 L8.032,7.01266738 C7.994,7.03266738 7.956,7.05666738 7.915,7.07266738 C7.52723847,7.21676942 7.22231872,7.52388283 7.081,7.91266738 C7.045,8.01266738 6.991,8.03266738 6.897,8.03266738 C6.395,8.02866738 5.893,8.02966738 5.367,8.02966738 C5.377,8.21766738 5.377,8.39366738 5.397,8.56766738 C5.433,8.88366738 5.487,9.19766738 5.521,9.51266738 C5.534,9.63266738 5.587,9.65666738 5.694,9.65566738 C6.147,9.65066738 6.599,9.65566738 7.051,9.65066738 C7.163,9.65066738 7.219,9.67266738 7.245,9.79466738 C7.309,10.0926674 7.391,10.3876674 7.471,10.7046674 L5.83,10.7046674 C5.82605745,10.7362113 5.82605745,10.7681234 5.83,10.7996674 C6.04724179,11.5518988 6.40710906,12.2553375 6.89,12.8716674 C6.985,12.9876674 7.097,13.0896674 7.197,13.2016674 C7.40126948,13.4558153 7.73453675,13.5682052 8.051,13.4896674 C8.11040919,13.4926996 8.16538542,13.5220203 8.201,13.5696674 C8.263,13.6456674 8.291,13.7596674 8.364,13.8196674 C8.54078305,13.9774602 8.61940759,14.2179138 8.57,14.4496674 L8.57,14.4826674 C8.57,14.9326674 8.57,14.9326674 8.122,14.9646674 C6.08725098,15.1528155 4.06644962,14.4821154 2.548,13.1146674 C1.15968754,11.9158878 0.27476097,10.2374556 0.07,8.41466738 L0,7.86966738 L0,7.13466738 Z M9.2,4.28666738 C9.148,4.12966738 9.103,3.98666738 9.05,3.84866738 C8.7937682,3.04753593 8.3377783,2.32483496 7.725,1.74866738 C7.465,1.52366738 7.529,1.52866738 7.269,1.74566738 C7.18392076,1.81756755 7.10374209,1.8950736 7.029,1.97766738 C6.46957538,2.62502226 6.0598403,3.38781241 5.829,4.21166738 C5.82506708,4.23580133 5.82439439,4.26035428 5.827,4.28466738 L9.2,4.28666738 Z M1.526,8.03966738 C1.56565256,8.54421225 1.67225442,9.04123921 1.843,9.51766738 C1.86307721,9.61152696 1.95326942,9.67312164 2.048,9.65766738 C2.808,9.65266738 3.565,9.65566738 4.324,9.65466738 C4.372,9.65466738 4.421,9.64866738 4.464,9.64466738 L4.296,8.03966738 L1.526,8.03966738 Z M1.489,6.96566738 L4.297,6.96566738 L4.467,5.35066738 L2.307,5.35066738 C1.877,5.35066738 1.867,5.35066738 1.757,5.76766738 C1.653,6.15766738 1.579,6.55466738 1.487,6.96766738 L1.489,6.96566738 Z M12.559,4.29566738 C12.046,3.22966738 9.994,1.73366738 9.075,1.73366738 C9.07567255,1.7447358 9.07838476,1.75558463 9.083,1.76566738 C9.60231207,2.49839196 9.99259564,3.31447015 10.237,4.17866738 C10.27,4.28866738 10.329,4.29566738 10.42,4.29566738 C10.96,4.29366738 11.5,4.29366738 12.04,4.29366738 L12.56,4.29366738 L12.559,4.29566738 Z M2.455,10.7096674 C2.885,11.7096674 5.083,13.3196674 5.923,13.2596674 C5.843,13.1396674 5.766,13.0246674 5.693,12.9096674 C5.2931288,12.2640638 4.98136706,11.5678968 4.766,10.8396674 C4.75,10.7896674 4.689,10.7156674 4.649,10.7146674 C3.924,10.7076674 3.199,10.7096674 2.455,10.7096674 L2.455,10.7096674 Z M2.433,4.28466738 C2.515,4.28866738 2.563,4.29466738 2.611,4.29466738 C3.241,4.29466738 3.871,4.28866738 4.501,4.29866738 C4.56680056,4.31220341 4.63528212,4.29890626 4.69123564,4.26172909 C4.74718915,4.22455192 4.78598247,4.16657247 4.799,4.10066738 L4.802,4.08266738 C5.03427062,3.26660386 5.40169523,2.4952488 5.889,1.80066738 C5.90514771,1.76922142 5.91853141,1.73643134 5.929,1.70266738 C4.48595131,2.10275731 3.24139364,3.02148658 2.434,4.28266738 L2.433,4.28466738 Z M13.524,12.3336674 L13.664,11.7836674 L9.315,11.7836674 C9.19086282,11.8060776 9.06290967,11.7781896 8.95935757,11.7061534 C8.85580546,11.6341171 8.78515987,11.5238495 8.763,11.3996674 L8.757,11.3536674 C8.529,10.4470007 8.30166667,9.53966738 8.075,8.63166738 C8.02204624,8.48567923 8.04997116,8.32258827 8.14847757,8.20253359 C8.24698398,8.0824789 8.40148156,8.02324243 8.555,8.04666738 L14.6,8.04666738 L14.84,7.10966738 C14.857,7.04966738 14.868,6.98966738 14.883,6.92966738 C14.9145233,6.62580706 15.1860712,6.40481091 15.49,6.43566738 L15.512,6.43866738 C15.864,6.43866738 16.215,6.43566738 16.567,6.43866738 C16.7663791,6.41949714 16.9595334,6.51436401 17.0662452,6.68386943 C17.1729571,6.85337484 17.1749948,7.06855885 17.0715121,7.24005474 C16.9680295,7.41155063 16.7767063,7.51005839 16.577,7.49466738 C16.392,7.49666738 16.207,7.50666738 16.024,7.49066738 C15.874,7.47866738 15.812,7.53066738 15.776,7.67766738 C15.378,9.28233404 14.9763333,10.886334 14.571,12.4896674 L14.467,12.9116674 C14.4305073,13.210793 14.1593433,13.4243291 13.86,13.3896674 L9.72,13.3896674 C9.5128513,13.4186142 9.3078739,13.3239576 9.19558096,13.1474957 C9.08328801,12.9710338 9.08435601,12.7452586 9.19831335,12.5698669 C9.3122707,12.3944753 9.51813442,12.3017621 9.725,12.3326674 L13.292,12.3326674 L13.524,12.3336674 Z M12.864,9.65366738 C13.294,9.65366738 13.706,9.65366738 14.118,9.64966738 C14.1574326,9.64430249 14.1917701,9.62004224 14.21,9.58466738 C14.256,9.43266738 14.29,9.27766738 14.332,9.11766738 L12.862,9.11766738 L12.864,9.65366738 Z M10.72,9.11366738 L9.332,9.11366738 C9.37,9.26366738 9.412,9.40366738 9.438,9.54366738 C9.456,9.63566738 9.504,9.65666738 9.588,9.65566738 C9.862,9.65166738 10.135,9.65366738 10.408,9.65366738 L10.72,9.65366738 L10.72,9.11366738 Z M12.863,10.7236674 C13.205,10.7236674 13.533,10.7266674 13.859,10.7216674 C13.8978513,10.7119917 13.9295621,10.6840116 13.944,10.6466674 C13.988,10.4986674 14.022,10.3466674 14.062,10.1886674 L12.862,10.1886674 L12.863,10.7236674 Z M12.325,10.1876674 L11.26,10.1876674 L11.26,10.7176674 L12.326,10.7176674 L12.325,10.1876674 Z M12.325,9.11766738 L11.26,9.11766738 L11.26,9.64466738 L12.326,9.64466738 L12.325,9.11766738 Z M9.603,10.1846674 C9.643,10.3496674 9.675,10.4946674 9.717,10.6386674 C9.727,10.6716674 9.771,10.7186674 9.8,10.7186674 C10.105,10.7256674 10.41,10.7236674 10.717,10.7236674 L10.717,10.1836674 L9.603,10.1846674 Z M13.407,13.9426674 C13.698907,13.9459722 13.933182,14.1847047 13.930985,14.4766221 C13.928788,14.7685396 13.6909463,15.0037189 13.3990226,15.0026335 C13.1070989,15.0015406 12.8710187,14.7645931 12.871,14.4726674 C12.8748306,14.1788277 13.1141354,13.9426424 13.408,13.9426674 L13.407,13.9426674 Z M9.68,14.4676674 C9.68410285,14.2572263 9.81466197,14.0700132 10.0107193,13.9934378 C10.2067766,13.9168624 10.4296602,13.9660291 10.5753056,14.117982 C10.720951,14.2699349 10.7606299,14.4947015 10.6758163,14.6873383 C10.5910027,14.879975 10.3984259,15.0024846 10.188,14.9976674 C9.90126554,14.9911089 9.67352946,14.754442 9.678,14.4676674 L9.68,14.4676674 Z" id="Shape"></path>
        </g>
    </g>
</svg>