<?xml version="1.0" encoding="UTF-8"?>
<svg width="16px" height="16px" viewBox="0 0 16 16" version="1.1" xmlns="http://www.w3.org/2000/svg" xmlns:xlink="http://www.w3.org/1999/xlink">
    <title>Asset 1</title>
    <g id="Page-1" stroke="none" stroke-width="1" fill="none" fill-rule="evenodd">
        <g id="Asset-1" transform="translate(0.980715, 0.981385)" fill="#666666" fill-rule="nonzero">
            <path d="M11.7206707,15 C10.9521817,14.976221 10.1939055,14.8171184 9.48067072,14.53 C7.46539856,13.6940232 5.64414643,12.4514867 4.13067072,10.88 C2.55554921,9.36361752 1.30966156,7.53903888 0.470670722,5.52 C-0.199329278,3.75 -0.149329278,2.31 0.590670722,1.52 L0.790670722,1.32 C1.36805319,0.575733787 2.22392494,0.0990457221 3.16067072,0 C3.97803016,0.0968803783 4.71044092,0.550975053 5.16067072,1.24 C6.92067072,3.43 6.16067072,4.45 5.16067072,5.48 L5.11067072,5.53 C5.11067072,5.72 5.42067072,6.39 7.01067072,7.98 C7.58981696,8.57752298 8.22619956,9.1167735 8.91067072,9.59 C9.08598473,9.71065593 9.27802188,9.80498997 9.48067072,9.87 L9.54067072,9.81 C10.5406707,8.81 11.5406707,8.06 13.7706707,9.81 C14.4569131,10.2613354 14.9074681,10.9939451 15.0006707,11.81 C14.9291441,12.7443446 14.4453379,13.5983359 13.6806707,14.14 L13.4206707,14.39 C12.9578854,14.8116695 12.3459703,15.031239 11.7206707,15 L11.7206707,15 Z M3.09067072,1.11 C2.57067072,1.11 2.09067072,1.6 1.64067072,2.11 L1.37067072,2.39 C1.00067072,2.69 1.00067072,3.67 1.51067072,5.13 C2.2907925,7.01376168 3.45172849,8.71601387 4.92067072,10.13 C6.3344809,11.5966706 8.03696154,12.7543574 9.92067072,13.53 C11.1706707,14.01 12.3106707,14.05 12.6906707,13.66 L12.9406707,13.42 C13.4506707,12.94 13.9406707,12.42 13.9406707,11.92 C13.8505316,11.4215462 13.5522965,10.9851046 13.1206707,10.72 C11.5406707,9.45 11.1206707,9.85 10.3706707,10.63 L10.2206707,10.78 C9.82067072,11.18 9.22067072,11.1 8.35067072,10.55 C7.58852192,10.0263438 6.88155732,9.42659657 6.24067072,8.76 C5.00067072,7.49 3.39067072,5.7 4.25067072,4.83 L4.40067072,4.68 C5.19067072,3.9 5.59067072,3.51 4.32067072,1.93 C4.05687387,1.50157236 3.62495135,1.20394508 3.13067072,1.11 L3.09067072,1.11 Z" id="ahLayer_14"></path>
        </g>
    </g>
</svg>