<?xml version="1.0" encoding="UTF-8"?>
<svg width="13px" height="16px" viewBox="0 0 13 16" version="1.1" xmlns="http://www.w3.org/2000/svg" xmlns:xlink="http://www.w3.org/1999/xlink">
    <title>Asset 5</title>
    <g id="Page-1" stroke="none" stroke-width="1" fill="none" fill-rule="evenodd">
        <g id="Asset-5" transform="translate(0.981385, 0.981385)" fill="#666666" fill-rule="nonzero">
            <path d="M5.67,15 C5.44257096,15.0009211 5.22687684,14.899137 5.083,14.7229999 C4.565,14.1049999 0,8.56999992 0,5.66999992 C0,2.53854542 2.5385455,0 5.67,0 C8.8014545,0 11.34,2.53854542 11.34,5.66999992 C11.34,8.57199992 6.778,14.1069999 6.258,14.7279999 C6.11070378,14.8996266 5.896165,14.998869 5.67,15 Z M5.67,1.11199992 C3.15382842,1.11475555 1.11475564,3.15382833 1.112,5.66999992 C1.112,7.60699992 3.955,11.5899999 5.672,13.6939999 C7.38,11.5999999 10.23,7.61199992 10.23,5.66999992 C10.2272425,3.15304829 8.1869526,1.11365321 5.67,1.11199992 Z M5.67,8.60199992 C4.0508314,8.60144768 2.73863195,7.28850213 2.739,5.66933348 C2.7393682,4.05016483 4.05216454,2.73781609 5.67133322,2.7380001 C7.2905019,2.73818412 8.603,4.05083122 8.603,5.66999992 C8.60079661,7.28893753 7.28893762,8.60079653 5.67,8.60299992 L5.67,8.60199992 Z M5.67,3.84999992 C4.66484176,3.84999992 3.85,4.66484167 3.85,5.66999992 C3.85,6.67515816 4.66484176,7.48999992 5.67,7.48999992 C6.67515824,7.48999992 7.49,6.67515816 7.49,5.66999992 C7.49,4.66484167 6.67515824,3.84999992 5.67,3.84999992 L5.67,3.84999992 Z" id="anLayer_15"></path>
        </g>
    </g>
</svg>