<?xml version="1.0" encoding="UTF-8"?>
<svg width="21px" height="21px" viewBox="0 0 21 21" version="1.1" xmlns="http://www.w3.org/2000/svg" xmlns:xlink="http://www.w3.org/1999/xlink">
    <title>Icons - All.outline.4-Finall 2</title>
    <g id="Page-1" stroke="none" stroke-width="1" fill="none" fill-rule="evenodd">
        <g id="Icons---All.outline.4-Finall" transform="translate(0.988706, 0.993706)" fill="#222222" fill-rule="nonzero">
            <path d="M19.7476798,18.5676798 L14.9396798,13.7596798 C17.7841666,10.2862432 17.4043843,5.19225761 14.076283,2.17901862 C10.7481817,-0.834220361 5.64162995,-0.707522318 2.46705381,2.46705381 C-0.707522318,5.64162995 -0.834220361,10.7481817 2.17901862,14.076283 C5.19225761,17.4043843 10.2862432,17.7841666 13.7596798,14.9396798 L18.5676798,19.7426798 C18.7753087,19.9641854 19.0870071,20.0551864 19.3812007,19.980189 C19.6753943,19.9051916 19.9054865,19.6760744 19.9817325,19.3822019 C20.0579784,19.0883294 19.9683017,18.7762474 19.7476798,18.5676798 L19.7476798,18.5676798 Z M8.42267978,15.1676798 C4.69310092,15.1671275 1.67012763,12.1432587 1.67067993,8.41367983 C1.67123223,4.68410097 4.69510097,1.66112766 8.42467983,1.66167993 C12.1542587,1.6622322 15.177232,4.68610092 15.1766798,8.41567978 C15.1722694,12.1436588 12.1506599,15.1643735 8.42267978,15.1676798 Z" id="axLayer_18"></path>
        </g>
    </g>
</svg>