<?xml version="1.0" encoding="UTF-8"?>
<svg width="20px" height="26px" viewBox="0 0 20 26" version="1.1" xmlns="http://www.w3.org/2000/svg" xmlns:xlink="http://www.w3.org/1999/xlink">
    <title>Icons - All.outline.4-Finalq 4</title>
    <g id="Page-1" stroke="none" stroke-width="1" fill="none" fill-rule="evenodd">
        <g id="Icons---All.outline.4-Finalq" transform="translate(0.981385, 0.979385)" fill="#84C225" fill-rule="nonzero">
            <path d="M9.45,25.002 C9.07670083,25.0017449 8.72223486,24.8380328 8.48,24.554 C7.605,23.512 0,14.284 0,9.45 C0,4.23090911 4.23090911,-5.68434189e-14 9.45,-5.68434189e-14 C14.6690909,-5.68434189e-14 18.9,4.23090911 18.9,9.45 C18.9,14.29 11.297,23.512 10.43,24.548 C10.1846305,24.8342926 9.82704828,24.999948 9.45,25.002 Z M9.45,1.856 C5.25768059,1.86095695 1.86006092,5.25768204 1.854,9.45 C1.854,12.68 6.591,19.317 9.454,22.823 C12.297,19.338 17.046,12.691 17.046,9.451 C17.0415897,5.25783514 13.6431654,1.85985828 9.45,1.856 Z M9.45,14.3400004 C6.751115,14.341104 4.56228982,12.1542182 4.56100091,9.45533326 C4.55971314,6.75644835 6.74644947,4.56747381 9.44533429,4.56600039 C12.1442191,4.56452847 14.333343,6.75111528 14.335,9.45 C14.3322518,12.147192 12.1481866,14.3339403 9.451,14.3400004 L9.45,14.3400004 Z M9.45,6.41999983 C8.22290221,6.41959602 7.11646407,7.15863122 6.64687445,8.29232198 C6.17728483,9.42601273 6.43707887,10.7309593 7.30505431,11.5983622 C8.17302974,12.4657651 9.47814742,12.724698 10.6115281,12.2543604 C11.7449087,11.7840228 12.4832137,10.6770973 12.4820015,9.45 C12.4792473,7.77771875 11.1242812,6.42275273 9.452,6.41999983 L9.45,6.41999983 Z" id="aqLayer_15"></path>
        </g>
    </g>
</svg>