<?xml version="1.0" encoding="UTF-8"?>
<svg width="27px" height="25px" viewBox="0 0 27 25" version="1.1" xmlns="http://www.w3.org/2000/svg" xmlns:xlink="http://www.w3.org/1999/xlink">
    <title>Icons - All.outline.4-Finalpp 4</title>
    <g id="Page-1" stroke="none" stroke-width="1" fill="none" fill-rule="evenodd">
        <g id="Icons---All.outline.4-Finalpp" transform="translate(0.981863, 0.981385)" fill="#84C225" fill-rule="nonzero">
            <g id="bgLayer_14">
                <path d="M12.9215228,13.076 L12.8635228,13.076 C11.5305814,13.1159659 10.2466776,12.5717222 9.34852284,11.586 C7.32652284,9.316 7.76852284,5.224 7.77352284,5.183 C7.94952284,1.373 10.4695228,0 12.7715228,0 C15.3015228,0 17.8195228,1.367 18.0075228,5.192 C18.0335228,5.416 18.4375228,9.325 16.4335228,11.582 C15.5394328,12.5679646 14.258973,13.1137583 12.9285228,13.076 L12.9215228,13.076 Z M13.0075228,1.973 C11.6975228,1.973 9.87252284,2.406 9.74052284,5.317 C9.63852284,6.325 9.65252284,8.962 10.8205228,10.277 C11.3493103,10.8450343 12.1037527,11.1478378 12.8785228,11.103 L12.9145228,12.089 L12.9005228,11.102 C13.6765511,11.1485053 14.4325501,10.8446378 14.9605228,10.274 C16.0705228,9.024 16.1405228,6.608 16.0665228,5.584 L16.0445228,5.544 L16.0405228,5.27 C15.9105228,2.406 14.0845228,1.973 13.0085228,1.973 L13.0075228,1.973 Z M1.08352284,23.09 C0.57852284,23.09 0.14752284,23.208 0.10352284,22.695 C-0.47647716,16.308 1.43752284,15.565 4.42052284,14.78 C6.01652284,14.36 7.66052284,14.05 9.23852284,11.96 C9.40333608,11.7583279 9.64205476,11.6310656 9.90135834,11.6066384 C10.1606619,11.5822113 10.4189471,11.6626544 10.6185228,11.83 C11.0538038,12.1720734 11.1392089,12.7977875 10.8115228,13.244 C9.37419322,15.1580485 7.27605055,16.4687638 4.92552284,16.921 C2.70952284,17.507 1.59552284,17.307 2.06752284,22.511 C2.11552284,23.054 1.71752284,23.091 1.17452284,23.091 L1.08352284,23.09 Z M24.7035228,23.09 L24.6155228,23.09 C24.0755228,23.09 23.6755228,23.06 23.7225228,22.52 C24.1945228,17.313 23.0805228,17.27 20.8645228,16.686 C18.5225618,16.3003295 16.4159784,15.0356642 14.9745228,13.15 C14.8176803,12.9524423 14.7494562,12.698849 14.7860039,12.4492635 C14.8225517,12.1996781 14.9606217,11.9762932 15.1675228,11.832 C15.6106496,11.5136042 16.227857,11.6137886 16.5475228,12.056 C17.7156245,13.623754 19.4409652,14.6832993 21.3675228,15.016 C24.3505228,15.803 26.2635228,16.3 25.6875228,22.688 C25.6405228,23.2 25.2095228,23.088 24.7045228,23.088 L24.7035228,23.09 Z" id="Shape"></path>
            </g>
        </g>
    </g>
</svg>