<?xml version="1.0" encoding="UTF-8"?>
<svg width="27px" height="26px" viewBox="0 0 27 26" version="1.1" xmlns="http://www.w3.org/2000/svg" xmlns:xlink="http://www.w3.org/1999/xlink">
    <title>Icons - All.outline.4-Finalq 2</title>
    <g id="Page-1" stroke="none" stroke-width="1" fill="none" fill-rule="evenodd">
        <g id="ae_Group_" transform="translate(0.981385, 0.981380)">
            <path d="M3.747,0 L21.29,0 C23.3519173,-0.00356875329 25.0350368,1.64838188 25.07,3.71000579 L25.07,21.2540058 C25.0513411,23.3283522 23.3644303,25 21.29,25 L3.747,25 C1.67866469,24.9983523 0.00220556411,23.3223406 0,21.2540058 L0,3.71000579 C0.018124874,1.65414256 1.69105814,-0.00227121177 3.747,0 Z" id="ae_Path_" fill="#A5CD39"></path>
            <g id="ae_Group_2" transform="translate(3.551000, 3.134006)">
                <path d="M9.559,0 L7.563,0 L7.563,5.39 C8.27373833,5.3933171 8.96783009,5.60543933 9.559,6 L9.559,0 Z" id="ae_Path_2" fill="#231F20"></path>
                <path d="M8.089,15.126 C7.68433771,15.8599638 6.89364599,16.2957781 6.057,16.246 C5.47610275,16.2601566 4.90788875,16.0748694 4.447,15.721 C3.98240982,15.3311842 3.63144076,14.8233844 3.431,14.251 C3.20743032,13.6455626 3.0890571,13.0063472 3.081,12.361 C3.0888542,11.7035915 3.20716959,11.0521808 3.431,10.434 C3.62286899,9.86674367 3.97593776,9.36772128 4.447,8.998 C4.89611986,8.61895743 5.46959966,8.4194862 6.057,8.438 C6.61649773,8.42386762 7.16264282,8.61005345 7.597,8.963 C8.01393432,9.35944519 8.32652014,9.8527125 8.507,10.399 C8.69551195,11.0351619 8.78986716,11.6955012 8.787,12.359 C8.81939553,13.3289034 8.57671595,14.2881812 8.087,15.126 L8.089,15.126 Z M11.625,9.243 C11.269399,8.30504399 10.6642763,7.4820771 9.875,6.863 C9.08349106,6.25288239 8.10713951,5.93178376 7.108,5.953 C6.35923098,5.94076226 5.61717726,6.09586925 4.936,6.407 C4.28205014,6.70312926 3.72426106,7.1767303 3.326,7.774 L3.29,7.774 L3.29,0 L0,0 L0,18.696 C0,18.696 3.01,19.046 3.115,17.121 L3.115,16.805 L3.15,16.945 C3.25191991,17.1404881 3.36894192,17.3277233 3.5,17.505 C3.84723203,17.8655292 4.26441853,18.1513666 4.726,18.345 C5.48397335,18.6372765 6.29453538,18.7683968 7.106,18.73 C8.10123399,18.7631768 9.07779206,18.4543628 9.873,17.855 C10.6546657,17.2285839 11.2581247,16.4078796 11.623,15.475 C12.0091736,14.4807768 12.2111325,13.4245589 12.219,12.358 C12.2150313,11.2912482 12.0136388,10.2344461 11.625,9.241 L11.625,9.243 Z" id="ae_Compound_Path_" fill="#EC1C24"></path>
                <path d="M17.373,9.243 C16.9105701,7.94182034 15.9236177,6.8942321 14.6522869,6.35513307 C13.380956,5.81603404 11.9418028,5.83484903 10.685,6.407 C10.5663333,6.46433333 10.451,6.52566667 10.339,6.591 C10.7411614,6.95235386 11.0977899,7.36136844 11.401,7.809 C11.7440627,7.69205399 12.1045794,7.63456072 12.467,7.639 C15.004,7.639 15.757,10.317 15.757,12.364 C15.757,14.434 14.953,17.048 12.467,17.048 C12.0752327,17.0526547 11.6857836,16.9872949 11.317,16.855 C10.9716192,17.3420223 10.5611348,17.7794237 10.097,18.155 C10.213,18.22 10.337,18.285 10.475,18.349 C11.2328932,18.6416456 12.0434636,18.7731079 12.855,18.735 C13.850234,18.7681768 14.8267921,18.4593628 15.622,17.86 C16.4036657,17.2335839 17.0071247,16.4128796 17.372,15.48 C17.7580545,14.4860906 17.9600113,13.4302224 17.968,12.364 C17.9633939,11.2971225 17.7613225,10.2403161 17.372,9.247 L17.373,9.243 Z" id="ae_Path_3" fill="#231F20"></path>
            </g>
        </g>
    </g>
</svg>