<?xml version="1.0" encoding="UTF-8"?>
<svg width="16px" height="16px" viewBox="0 0 16 16" version="1.1" xmlns="http://www.w3.org/2000/svg" xmlns:xlink="http://www.w3.org/1999/xlink">
    <title>Icons - All.outline.4-Final 2</title>
    <g id="Page-1" stroke="none" stroke-width="1" fill="none" fill-rule="evenodd">
        <g id="Icons---All.outline.4-Final" transform="translate(0.980869, 0.981496)" fill="#FFFFFF" fill-rule="nonzero">
            <path d="M9.59551648,14.6348895 C9.1052826,15.1220129 8.31375035,15.1220129 7.82351648,14.6348895 L0.923516475,8.1798895 C0.469151605,7.76497097 0.161159501,7.21423338 0.0455164751,6.6098895 C-0.0444835249,5.1838895 0.0195164751,2.4568895 0.0625164751,1.0098895 C0.0862131026,0.474926809 0.517340781,0.0481539554 1.05251648,0.0298895024 C2.90051648,-0.0151104976 6.82651648,-0.0601104976 7.19051648,0.302889502 L14.7905165,7.1598895 C15.2765165,7.6478895 14.8345165,8.8798895 14.3425165,9.3678895 L9.59551648,14.6348895 Z M3.54851648,2.1248895 C3.13653515,1.71135062 2.4673271,1.71006124 2.05375528,2.1220095 C1.64018346,2.53395776 1.63884057,3.20316571 2.05075576,3.61677046 C2.46267095,4.03037522 3.13187878,4.03177162 3.54551648,3.6198895 L3.54851648,3.6168895 C3.95640215,3.20238472 3.95417114,2.53665118 3.54351648,2.1248895 L3.54851648,2.1248895 Z" id="avForma_1"></path>
        </g>
    </g>
</svg>