<?xml version="1.0" encoding="UTF-8"?>
<svg width="28px" height="23px" viewBox="0 0 28 23" version="1.1" xmlns="http://www.w3.org/2000/svg" xmlns:xlink="http://www.w3.org/1999/xlink">
    <title>Icons - All.outline.4-Finalpp</title>
    <g id="Page-1" stroke="none" stroke-width="1" fill="none" fill-rule="evenodd">
        <g id="Icons---All.outline.4-Finalpp" transform="translate(0.981382, 0.981385)" fill="#FFFFFF" fill-rule="nonzero">
            <path d="M1.20400332,4.14581166e-07 L25.1540033,4.14581166e-07 C25.4734972,-0.000264529994 25.7799963,0.12646795 26.0060064,0.352290517 C26.2320165,0.578113085 26.3590037,0.88450684 26.3590037,1.20400083 C26.3592689,1.52366805 26.2323992,1.83031887 26.0063603,2.05635781 C25.7803214,2.28239675 25.4736705,2.40926645 25.1540033,2.40900125 L1.20500332,2.40900125 C0.885162599,2.40926692 0.578359847,2.28226003 0.352292051,2.05600463 C0.126224256,1.82974922 -0.000528089694,1.52284122 1.65383238e-06,1.20300083 C0.000555278608,0.538440549 0.539442808,4.14581166e-07 1.20400332,4.14581166e-07 Z M1.20400332,9.79599917 L25.1540033,9.79599917 C25.4736704,9.79546982 25.7804265,9.922085 26.0066531,10.1479364 C26.2328796,10.3737878 26.3600033,10.6803334 26.3600033,11.0000008 C26.3600033,11.3194948 26.2330165,11.6258886 26.0070064,11.8517111 C25.7809963,12.0775337 25.4744972,12.2042662 25.1550033,12.2040012 L1.20500332,12.2040012 C0.885509438,12.2042662 0.579010361,12.0775337 0.353000233,11.8517111 C0.126990106,11.6258886 3.31805137e-06,11.3194948 3.31805137e-06,11.0000008 C3.31805137e-06,10.6806802 0.126852954,10.3744381 0.352646754,10.1486443 C0.578440553,9.92285047 0.884682664,9.79599917 1.20400332,9.79599917 L1.20400332,9.79599917 Z M1.20400332,19.5910004 L25.1540033,19.5910004 C25.473844,19.5907347 25.7806468,19.7177416 26.0067146,19.943997 C26.2327824,20.1702524 26.3595347,20.4771604 26.359005,20.7970008 C26.3587382,21.1163215 26.2316343,21.4224583 26.0056529,21.6480646 C25.7796715,21.8736709 25.473324,22.0002662 25.1540033,22.0000012 L1.20500332,22.0000012 C0.885509438,22.0002662 0.579010361,21.8735337 0.353000233,21.6477111 C0.126990106,21.4218886 2.90216894e-06,21.1154948 2.90216894e-06,20.7960008 C-0.000262042406,20.476507 0.126470437,20.1700079 0.352293005,19.9439977 C0.578115572,19.7179876 0.884509328,19.5910004 1.20400332,19.5910004 L1.20400332,19.5910004 Z" id="arLayer_25"></path>
        </g>
    </g>
</svg>