<?xml version="1.0" encoding="UTF-8"?>
<svg width="26px" height="24px" viewBox="0 0 26 24" version="1.1" xmlns="http://www.w3.org/2000/svg" xmlns:xlink="http://www.w3.org/1999/xlink">
    <title>Icons - All.outline.4-Finalpp 3</title>
    <g id="Page-1" stroke="none" stroke-width="1" fill="none" fill-rule="evenodd">
        <g id="Icons---All.outline.4-Finalpp" transform="translate(0.981649, 0.981385)" fill="#FFFFFF" fill-rule="nonzero">
            <g id="beLayer_14">
                <path d="M12.3357364,12.483 L12.2807364,12.483 C11.0085484,12.5209187 9.78320054,12.0015612 8.92573635,11.061 C6.99573635,8.894 7.41873635,4.987 7.42373635,4.948 C7.58773635,1.31 9.99473635,0 12.1927364,0 C14.6097364,0 17.0127364,1.305 17.1907364,4.957 C17.2177364,5.17 17.6027364,8.902 15.6907364,11.057 C14.8369566,11.9984543 13.6141491,12.5194353 12.3437364,12.483 L12.3357364,12.483 Z M12.4187364,1.883 C11.1657364,1.883 9.42473635,2.297 9.29873635,5.076 C9.19873635,6.038 9.21373635,8.556 10.3287364,9.812 C10.8337332,10.3541449 11.5540793,10.6430166 12.2937364,10.6 L12.3277364,11.54 L12.3127364,10.6 C13.0533092,10.6443793 13.7747812,10.3544694 14.2787364,9.81 C15.3407364,8.615 15.4087364,6.31 15.3367364,5.333 L15.3167364,5.293 L15.3117364,5.033 C15.1877364,2.297 13.4437364,1.883 12.4177364,1.883 L12.4187364,1.883 Z M1.03473635,22.894 C0.559350446,22.9189592 0.147611041,22.5674208 0.0977363516,22.094 C-0.452263648,15.994 1.37273635,15.074 4.22073635,14.324 C6.05760404,14.0183286 7.70552352,13.0152472 8.82073635,11.524 C8.97163038,11.3254408 9.19545435,11.1952273 9.44264564,11.1621933 C9.68983692,11.1291594 9.93999875,11.1960309 10.1377364,11.348 C10.5519696,11.6632096 10.6341494,12.2536535 10.3217364,12.67 C8.94928843,14.4950806 6.94526452,15.7424251 4.70173635,16.168 C2.58773635,16.726 1.52373635,16.954 1.97373635,21.924 C2.002041,22.1684056 1.92553615,22.4133682 1.76316773,22.5982243 C1.60079931,22.7830803 1.36775123,22.8905431 1.12173635,22.894 L1.03473635,22.894 Z M23.5847364,22.894 L23.4997364,22.894 C23.2537215,22.8905431 23.0206734,22.7830803 22.858305,22.5982243 C22.6959366,22.4133682 22.6194317,22.1684056 22.6477364,21.924 C23.0977364,16.954 22.0347364,16.701 19.9177364,16.144 C17.6753994,15.724995 15.6707909,14.4826371 14.2977364,12.661 C14.0800359,12.3941855 14.0260391,12.0295352 14.157074,11.7110806 C14.2881089,11.392626 14.5831045,11.171576 14.9255418,11.1352421 C15.2679791,11.0989081 15.6027928,11.253133 15.7977364,11.537 C16.9131076,13.0304082 18.5601475,14.0376089 20.3977364,14.35 C23.2477364,15.1 25.0727364,15.994 24.5217364,22.092 C24.4728486,22.56622 24.0608197,22.9188851 23.5847364,22.894 L23.5847364,22.894 Z M11.0147364,21.886 C10.7910116,21.8857967 10.5765659,21.7965643 10.4187364,21.638 L8.21873635,19.428 C7.89095536,19.0988383 7.89207465,18.566281 8.22123636,18.2385 C8.55039807,17.910719 9.08295535,17.9118383 9.41073635,18.241 L11.0207364,19.861 L15.2147364,15.765 C15.5472118,15.4405327 16.0797691,15.4470246 16.4042364,15.7795 C16.7287036,16.1119754 16.7222118,16.6445327 16.3897364,16.969 L11.5997364,21.647 C11.4434913,21.8008378 11.2330046,21.887 11.0137364,21.887 L11.0147364,21.886 Z" id="Shape"></path>
            </g>
        </g>
    </g>
</svg>