<?xml version="1.0" encoding="UTF-8"?>
<svg width="29px" height="26px" viewBox="0 0 29 26" version="1.1" xmlns="http://www.w3.org/2000/svg" xmlns:xlink="http://www.w3.org/1999/xlink">
    <title>Icons - All.outline.4-Finalq</title>
    <g id="Page-1" stroke="none" stroke-width="1" fill="none" fill-rule="evenodd">
        <g id="Icons---All.outline.4-Finalq" transform="translate(0.936230, 0.980381)" fill="#FFFFFF" fill-rule="nonzero">
            <path d="M1.06515529,2.03900393 L3.98515529,2.03900393 L8.14515529,17.0870039 C8.26810602,17.5296297 8.67177268,17.8354502 9.13115529,17.834009 L21.9211553,17.834009 C22.3260599,17.8332711 22.6921939,17.593106 22.8541553,17.2220039 L27.5071553,6.52200393 C27.6416545,6.20597205 27.6097768,5.84369186 27.4221553,5.55600393 C27.2350772,5.26854034 26.9151322,5.0953936 26.5721553,5.09600393 L12.4421553,5.09600393 C11.8788248,5.09600393 11.4221553,5.55267349 11.4221553,6.11600393 C11.4221553,6.67933438 11.8788248,7.13600393 12.4421553,7.13600393 L25.0101553,7.13600393 L21.2401553,15.7960039 L9.89515529,15.7960039 L5.73515529,0.749003932 C5.61267744,0.306340294 5.20944949,0 4.75015529,0.00100393216 L1.06515529,0.00100393216 C0.690332236,-0.015605727 0.336649589,0.174900141 0.144278395,0.497020499 C-0.0480927985,0.819140857 -0.0480927985,1.22086701 0.144278395,1.54298737 C0.336649589,1.86510772 0.690332236,2.05561359 1.06515529,2.03900393 Z M8.16315529,25.0010039 C9.09746307,25.0010039 9.9397729,24.4381905 10.297317,23.5750027 C10.6548611,22.7118148 10.4572273,21.7182426 9.79657195,21.0575873 C9.13591658,20.3969319 8.1423444,20.1992981 7.27915656,20.5568422 C6.41596872,20.9143863 5.85315529,21.7566961 5.85315529,22.6910039 C5.85425803,23.9663247 6.88783457,24.9999012 8.16315529,25.0010039 Z M22.5991553,25.0010039 L22.7691553,25.0010039 C24.0717209,24.9546491 25.0969584,23.8731932 25.0737773,22.5700092 C25.0505962,21.2668252 23.9875455,20.2225159 22.6841553,20.2225159 C21.3807651,20.2225159 20.3177144,21.2668252 20.2945333,22.5700092 C20.2713522,23.8731932 21.2965897,24.9546491 22.5991553,25.0010039 L22.5991553,25.0010039 Z" id="adLayer_3"></path>
        </g>
    </g>
</svg>