<?xml version="1.0" encoding="UTF-8"?>
<svg width="26px" height="24px" viewBox="0 0 26 24" version="1.1" xmlns="http://www.w3.org/2000/svg" xmlns:xlink="http://www.w3.org/1999/xlink">
    <title>Icons - All.outline.4-Finalpp 2</title>
    <g id="Page-1" stroke="none" stroke-width="1" fill="none" fill-rule="evenodd">
        <g id="Icons---All.outline.4-Finalpp" transform="translate(0.981093, 0.981385)" fill="#84C225" fill-rule="nonzero">
            <g id="bdLayer_14" transform="translate(-0.000000, 0.000000)">
                <path d="M12.4342925,12.583 L12.3792925,12.583 C11.096268,12.6218072 9.86026815,12.0984065 8.99529251,11.15 C7.05229251,8.964 7.47829251,5.026 7.48229251,4.987 C7.65029251,1.322 10.0752925,0 12.2922925,0 C14.7262925,0 17.1482925,1.315 17.3282925,4.996 C17.3542925,5.211 17.7432925,8.973 15.8142925,11.146 C14.9537698,12.0946035 13.7215308,12.6195746 12.4412925,12.583 L12.4342925,12.583 Z M12.5172925,1.898 C11.2572925,1.898 9.50129251,2.315 9.37429251,5.116 C9.27429251,6.086 9.28829251,8.624 10.4142925,9.89 C10.9227721,10.4356034 11.6476988,10.7266003 12.3922925,10.684 L12.4272925,11.634 L12.4132925,10.684 C13.1598275,10.7288723 13.8871694,10.4367612 14.3952925,9.888 C15.4652925,8.684 15.5322925,6.36 15.4602925,5.376 L15.4402925,5.336 L15.4342925,5.072 C15.3092925,2.315 13.5522925,1.898 12.5172925,1.898 L12.5172925,1.898 Z M1.04329251,22.97 C0.575342864,23.0192333 0.154705566,22.6832582 0.0992925104,22.216 C-0.45770749,16.069 1.38329251,15.168 4.25329251,14.41 C6.10261427,14.1081345 7.76349512,13.1026476 8.88829251,11.604 C9.04099511,11.4036165 9.26753168,11.2726687 9.51738675,11.2403566 C9.76724181,11.2080445 10.0196377,11.2770552 10.2182925,11.432 C10.6344435,11.7523185 10.7159793,12.3475743 10.4012925,12.768 C9.01779004,14.6078072 6.9978067,15.8654385 4.73629251,16.295 C2.60429251,16.857 1.53229251,17.035 1.98629251,22.045 C2.01289202,22.2861694 1.93327475,22.5269823 1.76816091,22.7047676 C1.60304707,22.882553 1.36876737,22.9797269 1.12629251,22.971 L1.04329251,22.97 Z M23.7732925,22.97 L23.6872925,22.97 C23.4451981,22.9792904 23.211054,22.8827211 23.0458976,22.705466 C22.8807412,22.5282109 22.8009384,22.2878349 22.8272925,22.047 C23.2822925,17.037 22.2102925,16.807 20.0772925,16.245 C17.8176219,15.8292841 15.7959162,14.581507 14.4112925,12.748 C14.2605006,12.5493467 14.1953236,12.2986823 14.2302525,12.0517385 C14.2651815,11.8047946 14.3973213,11.5820396 14.5972925,11.433 C15.0170289,11.1181977 15.6124902,11.2032636 15.9272925,11.623 C17.0510859,13.1289701 18.7109792,14.1450997 20.5632925,14.461 C23.4332925,15.219 25.2732925,16.069 24.7192925,22.215 C24.6643667,22.6833322 24.2433219,23.0206135 23.7742925,22.972 L23.7732925,22.97 Z M11.1032925,22.060001 C10.8780257,22.059668 10.662148,21.969719 10.5032925,21.81 L8.28729251,19.583 C8.07346905,19.3686406 7.99024738,19.056491 8.0689763,18.7641348 C8.14770521,18.4717785 8.37642392,18.2436316 8.6689763,18.1656347 C8.96152868,18.0876379 9.27346906,18.1716406 9.48729251,18.386 L11.1102925,20.016 L15.3372925,15.89 C15.5515884,15.6664129 15.8707295,15.5774312 16.1697967,15.6578846 C16.4688639,15.7383379 16.7002868,15.9754291 16.7734811,16.2763552 C16.8466754,16.5772813 16.7499988,16.8941762 16.5212925,17.103 L11.6952925,21.818 C11.5374675,21.9733876 11.3247737,22.0603333 11.1032925,22.060001 L11.1032925,22.060001 Z" id="Shape"></path>
            </g>
        </g>
    </g>
</svg>